<svg width="115" height="27" viewBox="0 0 115 27" fill="none" xmlns="http://www.w3.org/2000/svg">
<path d="M24.9886 3.21457C24.8505 1.85331 24.3036 1.57895 23.2416 1.57895H18.7175C17.7246 1.57895 17.4856 1.74779 17.1086 2.83996L13.7156 13.8725L10.3226 2.83996C9.94555 1.74779 9.7066 1.57895 8.71364 1.57895H4.18428C3.12229 1.57895 2.57537 1.85331 2.43731 3.21457L0.0372224 24.8733C-0.0636662 25.6542 0.00536284 25.9655 0.690344 26.0657L5.86752 26.815C6.65339 26.9152 6.82862 26.7464 6.92951 26.166L8.06052 16.0199L10.4925 25.5223C10.7314 26.3032 11.0394 26.6145 11.8306 26.6145H15.6006C16.3865 26.6145 16.6998 26.3084 16.9387 25.5223L19.3388 16.0199L20.5017 26.166C20.6026 26.7464 20.7778 26.9152 21.5637 26.815L26.7409 26.0657C27.4258 25.9655 27.4949 25.6595 27.394 24.8733L24.9886 3.21457Z" fill="#0B4937"/>
<path d="M37.4542 7.36842C31.644 7.36842 28.4863 11.3508 28.4863 16.8421C28.4863 22.3334 31.644 26.3158 37.4542 26.3158C43.2644 26.3158 46.4221 22.3334 46.4221 16.8421C46.4221 11.3508 43.2644 7.36842 37.4542 7.36842ZM37.4542 20.1193C36.0596 20.1193 35.3122 18.8126 35.3122 16.8369C35.3122 14.8613 36.0596 13.5546 37.4542 13.5546C38.8489 13.5546 39.5962 14.8613 39.5962 16.8369C39.5962 18.8126 38.8489 20.1193 37.4542 20.1193Z" fill="#0B4937"/>
<path d="M59.452 7.37894C58.2609 7.37894 49.3491 7.61559 48.7694 8.4307C48.5322 8.70415 48.5322 9.07753 48.5322 9.7191L48.8063 24.5173C48.8379 25.8741 49.1488 26.3158 50.3346 26.3158H54.4875C55.6785 26.3158 56.0158 25.8741 56.0158 24.5173V14.2995C56.527 14.1312 56.6957 14.0628 57.2754 14.026C58.0554 13.9945 58.4296 14.2311 58.672 14.8727C58.8406 15.5511 58.8775 16.5713 58.8775 17.9596L58.8459 24.512C58.8459 25.8688 59.2201 26.3105 60.4111 26.3105H64.6641C65.8552 26.3105 66.1609 25.8688 66.1925 24.512L66.4665 15.4827C66.4981 13.274 66.0238 11.2389 64.9013 9.74539C63.7102 8.2519 61.9395 7.36842 59.4572 7.36842L59.452 7.37894Z" fill="#0B4937"/>
<path d="M75.414 9.47369H71.1391C69.9695 9.47369 69.6331 9.87706 69.6331 11.2339V24.5242C69.6331 25.8757 69.9695 26.3158 71.1391 26.3158H75.4813C76.6509 26.3158 77.0184 25.8757 77.0184 24.5242L76.9511 11.2339C76.9511 9.91373 76.5836 9.47369 75.414 9.47369Z" fill="#0B4937"/>
<path d="M73.5895 0.526314C71.0576 0.526314 69.6331 2.08541 69.6331 4.21052C69.6331 6.33563 71.0576 7.89473 73.5895 7.89473C76.1214 7.89473 77.5459 6.33563 77.5459 4.21052C77.5459 2.08541 76.1214 0.526314 73.5895 0.526314Z" fill="#0B4937"/>
<path d="M91.9469 7.91969H89.3173V3.34406C89.3173 1.98871 88.9692 1.57895 87.7642 1.57895H83.6833C82.4729 1.57895 82.0927 2.02023 82.0927 3.34406V7.91969H80.0201C78.8793 7.91969 78.6008 8.12457 78.6008 9.17523V12.8736C78.6008 13.9242 78.8793 14.1291 80.0201 14.1291H82.0927V20.5697C82.0927 24.9089 84.4063 26.8421 88.7657 26.8421C90.0457 26.8421 91.3256 26.7423 92.536 26.5006C93.0555 26.4008 93.1947 26.2642 93.1947 25.7547L93.0234 20.5644C93.0234 20.1231 92.7824 19.955 92.3325 20.0548C91.9522 20.1546 91.572 20.2229 91.0525 20.2229C90.051 20.2229 89.3227 19.8815 89.3227 18.4263V14.1186H91.9522C93.093 14.1186 93.3715 13.9137 93.3715 12.8631V9.16473C93.3715 8.11406 93.093 7.90918 91.9522 7.90918L91.9469 7.91969Z" fill="#0B4937"/>
<path d="M103.394 7.36842C97.5842 7.36842 94.4265 11.3508 94.4265 16.8421C94.4265 22.3334 97.5842 26.3158 103.394 26.3158C109.205 26.3158 112.362 22.3334 112.362 16.8421C112.362 11.3508 109.205 7.36842 103.394 7.36842ZM103.394 20.1193C102 20.1193 101.252 18.8126 101.252 16.8369C101.252 14.8613 102 13.5546 103.394 13.5546C104.789 13.5546 105.536 14.8613 105.536 16.8369C105.536 18.8126 104.789 20.1193 103.394 20.1193Z" fill="#0B4937"/>
<path d="M114.03 8.11045C113.421 7.6707 112.422 7.92478 111.792 8.67724C111.161 9.42971 111.145 10.3972 111.75 10.8369C112.359 11.2767 113.358 11.0226 113.988 10.2701C114.619 9.51766 114.634 8.5502 114.03 8.11045Z" fill="#0B4937"/>
<path d="M99.685 6.83118C100.401 6.72115 100.871 5.81473 100.733 4.80352C100.594 3.79232 99.9074 3.0588 99.1909 3.16882C98.4744 3.27885 98.005 4.18527 98.1433 5.19648C98.2817 6.20769 98.9685 6.94121 99.685 6.83118Z" fill="#0B4937"/>
<path d="M108.969 7.76093C109.96 8.26132 111.461 7.31493 112.315 5.64516C113.169 3.97538 113.06 2.21314 112.063 1.71276C111.072 1.21237 109.571 2.15875 108.717 3.82853C107.863 5.4983 107.972 7.26054 108.969 7.76093Z" fill="#0B4937"/>
<path d="M103.837 6.30726C104.836 6.4344 105.805 5.12591 105.998 3.38834C106.191 1.64546 105.538 0.135674 104.534 0.0085342C103.535 -0.118606 102.566 1.18988 102.373 2.92745C102.18 4.67033 102.833 6.18012 103.837 6.30726Z" fill="#0B4937"/>
</svg>
