<svg width="116" height="40" viewBox="0 0 116 40" fill="none" xmlns="http://www.w3.org/2000/svg">
<g clip-path="url(#clip0_330_4719)">
<path fill-rule="evenodd" clip-rule="evenodd" d="M21.059 3.05068C25.3549 -2.32303 26.08 2.55941 29.2433 3.58585C29.6247 3.70935 29.9091 3.73954 29.883 3.94813C29.6059 6.05314 29.0134 6.45109 28.3523 6.4703C27.6201 6.49501 27.0254 6.47854 26.5871 6.72005C26.0279 7.02743 25.6226 7.42538 25.3265 7.89194L20.8338 5.23804C20.976 4.62327 21.0542 3.89872 21.059 3.05068ZM24.8573 8.90741C23.9 11.8604 25.1772 16.2516 20.8978 17.8681C20.6395 20.382 20.6514 22.8988 20.9546 25.4128L21.4736 25.3496C22.4096 25.2344 22.4025 26.2196 21.9594 26.8536H19.1918C18.9904 23.8401 18.488 20.5412 18.6966 17.665C17.2393 18.1179 16.3602 17.9971 14.7774 17.2972C14.0096 16.9598 10.8392 14.7641 9.97906 15.6561C9.49567 16.1611 10.7871 18.1755 7.59768 21.7516L7.65455 25.2892H8.1948C9.01229 25.2892 8.96726 26.2361 8.67108 26.8536H7.09535C6.04802 26.8536 6.26838 26.9826 6.25416 25.7064L6.2281 22.9537L6.05987 21.2466C6.06224 20.2312 6.69252 19.1498 6.09066 16.7292C5.69259 15.1291 5.72576 13.853 4.68554 13.6774C3.72114 15.9305 2.79703 17.9944 1.98665 20.3574C1.93216 20.5166 1.85633 20.6675 1.78998 20.824C0.865869 23.2886 0.479637 21.436 0.996193 19.9731L1.34214 18.9961C1.78525 16.9296 3.03398 13.0543 4.21164 11.6162C8.65212 6.19037 17.6516 11.3225 20.3031 6.62674L24.8573 8.90741Z" fill="#0B4937"/>
<path d="M39.5564 24.3474C39.5564 24.5851 39.0664 24.7771 38.0864 24.9234C37.1064 25.0697 36.1264 25.1429 35.1463 25.1429C34.1663 25.1429 33.5397 25.0789 33.2666 24.9509C32.9935 24.8229 32.8569 24.6217 32.8569 24.3474V6.71086C32.8569 5.83314 35.1704 5.39429 39.7974 5.39429C42.5929 5.39429 44.4405 5.61372 45.3402 6.05257C46.4327 6.56457 47.1717 7.25943 47.5573 8.13714C48.0714 9.27086 48.3285 10.7246 48.3285 12.4983C48.3285 14.9303 47.9589 16.6949 47.2199 17.792C46.6897 18.5966 46.1596 19.1177 45.6294 19.3554C45.0992 19.5931 44.6574 19.7669 44.3039 19.8766C43.9666 19.968 43.5408 20.0411 43.0267 20.096C42.3198 20.1691 41.3558 20.2057 40.1348 20.2057L39.5564 20.1783V24.3474ZM39.5805 15.6251H40.1589C40.4642 15.6251 40.7052 15.5794 40.8819 15.488C41.0586 15.3783 41.2112 15.104 41.3398 14.6651C41.4844 14.208 41.5567 13.5771 41.5567 12.7726C41.5567 11.9497 41.4763 11.328 41.3157 10.9074C41.1711 10.4686 41.0184 10.2126 40.8578 10.1394C40.7132 10.048 40.5365 10.0023 40.3276 10.0023H39.5805V15.6251ZM56.5951 18.944C56.5951 20.1326 57.0931 20.7269 58.0892 20.7269C58.6677 20.7269 59.4228 20.5074 60.3546 20.0686C61.2865 19.6114 61.7765 19.3829 61.8247 19.3829C62.1299 19.3829 62.5316 19.904 63.0295 20.9463C63.5276 21.9886 63.7766 22.7566 63.7766 23.2503C63.7766 23.9634 63.1341 24.5029 61.8488 24.8686C60.5635 25.2343 59.3023 25.4171 58.0652 25.4171C56.8442 25.4171 55.8159 25.3074 54.9805 25.088C54.1611 24.8686 53.4863 24.5943 52.9562 24.2651C52.442 23.9177 51.9842 23.4971 51.5825 23.0034C51.1969 22.5097 50.9078 22.0434 50.715 21.6046C50.5222 21.1474 50.3695 20.6446 50.2571 20.096C50.0964 19.2914 50.0161 18.4594 50.0161 17.6C50.0161 14.272 50.7792 11.9771 52.3055 10.7154C53.0606 10.0754 53.9041 9.62743 54.8359 9.37143C55.7677 9.11543 56.8683 8.98743 58.1374 8.98743C62.2021 8.98743 64.2345 10.5966 64.2345 13.8149C64.2345 17.2343 61.9531 18.944 57.3905 18.944H56.5951ZM56.5469 14.9394V16.7497C57.0128 16.7497 57.3905 16.5394 57.6797 16.1189C57.9849 15.6983 58.1374 15.1863 58.1374 14.5829C58.1374 13.4857 57.8885 12.9371 57.3905 12.9371C56.8281 12.9371 56.5469 13.6046 56.5469 14.9394ZM66.1539 28.4617V11.0171C66.1539 10.6331 66.6038 10.24 67.5035 9.83772C68.4032 9.43543 69.3752 9.23429 70.4195 9.23429C70.9014 9.23429 71.279 9.29829 71.5521 9.42629C71.8252 9.55429 71.9939 9.68229 72.0582 9.81029C72.1225 9.93829 72.243 10.4869 72.4197 11.456H72.6125C72.6446 11.2914 72.7892 11.0354 73.0462 10.688C73.3033 10.3406 73.5604 10.0571 73.8174 9.83772C74.0905 9.61829 74.4761 9.42629 74.9742 9.26172C75.4722 9.07886 76.0506 8.98743 76.7093 8.98743C77.3841 8.98743 77.9946 9.16114 78.5408 9.50857C79.0871 9.83772 79.4887 10.2309 79.7458 10.688C80.0189 11.1269 80.2277 11.6937 80.3723 12.3886C80.533 13.0651 80.6213 13.6137 80.6374 14.0343C80.6695 14.4366 80.6856 15.0309 80.6856 15.8171C80.6856 16.5851 80.6615 17.3531 80.6133 18.1211C80.5651 18.8709 80.4768 19.6389 80.3482 20.4251C80.2197 21.2114 80.0349 21.888 79.794 22.4549C79.553 23.0217 79.2477 23.5337 78.8782 23.9909C78.1392 24.9051 77.0547 25.3623 75.6248 25.3623C75.1107 25.3623 74.6528 25.28 74.2512 25.1154C73.8656 24.9326 73.5764 24.7223 73.3836 24.4846C72.982 23.9909 72.749 23.552 72.6848 23.168L72.6607 22.8937H72.4679L72.8053 25.3623V28.4617C72.8053 28.6629 72.3393 28.8183 71.4075 28.928C70.4918 29.056 69.5439 29.12 68.5638 29.12C67.5999 29.12 66.9573 29.0651 66.6359 28.9554C66.3146 28.864 66.1539 28.6994 66.1539 28.4617ZM74.1548 17.1063C74.1548 15.552 74.0825 14.464 73.9379 13.8423C73.7933 13.2206 73.5764 12.9097 73.2872 12.9097C72.998 12.9097 72.7892 13.0926 72.6607 13.4583V20.6446C72.6607 21.12 72.8776 21.3577 73.3113 21.3577C73.8736 21.3577 74.1548 19.9406 74.1548 17.1063ZM82.6156 28.4617V11.0171C82.6156 10.6331 83.0655 10.24 83.9652 9.83772C84.8649 9.43543 85.8369 9.23429 86.8812 9.23429C87.3631 9.23429 87.7407 9.29829 88.0138 9.42629C88.2869 9.55429 88.4556 9.68229 88.5199 9.81029C88.5841 9.93829 88.7046 10.4869 88.8814 11.456H89.0742C89.1063 11.2914 89.2509 11.0354 89.5079 10.688C89.765 10.3406 90.022 10.0571 90.2791 9.83772C90.5522 9.61829 90.9378 9.42629 91.4359 9.26172C91.9339 9.07886 92.5123 8.98743 93.171 8.98743C93.8457 8.98743 94.4563 9.16114 95.0025 9.50857C95.5487 9.83772 95.9504 10.2309 96.2074 10.688C96.4806 11.1269 96.6894 11.6937 96.834 12.3886C96.9947 13.0651 97.083 13.6137 97.0991 14.0343C97.1312 14.4366 97.1473 15.0309 97.1473 15.8171C97.1473 16.5851 97.1232 17.3531 97.075 18.1211C97.0268 18.8709 96.9384 19.6389 96.8099 20.4251C96.6814 21.2114 96.4966 21.888 96.2556 22.4549C96.0147 23.0217 95.7094 23.5337 95.3399 23.9909C94.6009 24.9051 93.5164 25.3623 92.0865 25.3623C91.5724 25.3623 91.1145 25.28 90.7129 25.1154C90.3273 24.9326 90.0381 24.7223 89.8453 24.4846C89.4437 23.9909 89.2107 23.552 89.1465 23.168L89.1224 22.8937H88.9296L89.2669 25.3623V28.4617C89.2669 28.6629 88.801 28.8183 87.8692 28.928C86.9534 29.056 86.0056 29.12 85.0255 29.12C84.0616 29.12 83.4189 29.0651 83.0976 28.9554C82.7763 28.864 82.6156 28.6994 82.6156 28.4617ZM90.6165 17.1063C90.6165 15.552 90.5442 14.464 90.3996 13.8423C90.255 13.2206 90.0381 12.9097 89.7489 12.9097C89.4597 12.9097 89.2509 13.0926 89.1224 13.4583V20.6446C89.1224 21.12 89.3392 21.3577 89.773 21.3577C90.3353 21.3577 90.6165 19.9406 90.6165 17.1063ZM103.656 25.3897C102.194 25.3897 101.045 24.9966 100.21 24.2103C99.8725 23.8811 99.5753 23.3966 99.3182 22.7566C99.0772 22.1166 98.9567 21.3669 98.9567 20.5074C98.9567 19.648 99.1335 18.8983 99.4869 18.2583C99.8564 17.6183 100.298 17.1246 100.812 16.7771C101.326 16.4297 101.929 16.1463 102.619 15.9269C103.664 15.616 104.812 15.4606 106.066 15.4606H106.861C106.861 14.7109 106.636 14.1806 106.186 13.8697C105.993 13.7417 105.696 13.6777 105.294 13.6777C104.909 13.6777 104.435 13.7966 103.873 14.0343C103.326 14.272 102.868 14.5189 102.499 14.7749C102.129 15.0126 101.88 15.1314 101.752 15.1314C101.463 15.1314 101.069 14.7017 100.571 13.8423C100.073 12.9646 99.8243 12.1691 99.8243 11.456C99.8243 11.2183 100.122 10.9074 100.716 10.5234C101.31 10.1394 102.145 9.792 103.222 9.48114C104.314 9.152 105.375 8.98743 106.403 8.98743C107.431 8.98743 108.315 9.088 109.054 9.28914C109.809 9.472 110.419 9.70057 110.885 9.97486C111.367 10.2491 111.769 10.6149 112.09 11.072C112.428 11.5291 112.677 11.9406 112.837 12.3063C113.014 12.672 113.143 13.1474 113.223 13.7326C113.335 14.4091 113.392 15.2411 113.392 16.2286V24.4846C113.392 24.6857 112.958 24.8503 112.09 24.9783C111.239 25.088 110.387 25.1429 109.536 25.1429C108.7 25.1429 108.154 25.1154 107.897 25.0606C107.656 25.0057 107.511 24.9417 107.463 24.8686C107.415 24.7954 107.375 24.6674 107.343 24.4846L107.15 22.9211H106.957C106.556 24.5669 105.455 25.3897 103.656 25.3897ZM106.885 20.8366V17.6274C106.467 17.6274 106.13 17.8286 105.873 18.2309C105.616 18.6331 105.487 19.0903 105.487 19.6023C105.487 20.8091 105.728 21.4126 106.21 21.4126C106.419 21.4126 106.58 21.3577 106.692 21.248C106.821 21.12 106.885 20.9829 106.885 20.8366Z" fill="#0B4937"/>
<path d="M32.9666 32C33.6114 32 34.1452 32.2486 34.5733 32.7395C35.012 33.2305 35.2234 33.8427 35.2234 34.5702C35.2234 35.2976 35.012 35.8976 34.5733 36.4008C34.1452 36.8918 33.6114 37.1403 32.9666 37.1403H31.5766V39.8195H30.4561V32.0061H32.9666V32ZM32.9666 35.928C33.6273 35.928 34.1029 35.3582 34.1029 34.5641C34.1029 33.7701 33.6273 33.2002 32.9666 33.2002H31.5766V35.9219H32.9666V35.928Z" fill="#0B4937"/>
<path d="M36.9096 37.5826C37.0715 38.3654 37.7029 38.7961 38.5578 38.7961C39.1446 38.7961 39.586 38.578 39.8877 38.1586L40.8041 38.6954C40.3012 39.4449 39.5468 39.8195 38.5523 39.8195C37.7197 39.8195 37.0381 39.5622 36.524 39.0589C36.01 38.5444 35.7529 37.8957 35.7529 37.1127C35.7529 36.3298 36.01 35.7035 36.5128 35.189C37.0157 34.6633 37.675 34.406 38.4685 34.406C39.2172 34.406 39.8374 34.6745 40.318 35.2002C40.8041 35.7258 41.0499 36.3746 41.0499 37.1239C41.0499 37.2358 41.0387 37.3924 41.0108 37.5881H36.9151L36.9096 37.5826ZM39.9268 36.6765C39.7703 35.8433 39.1837 35.407 38.4573 35.407C37.636 35.407 37.0604 35.8935 36.904 36.6765H39.9268Z" fill="#0B4937"/>
<path d="M44.228 35.3309H43.0122V38.0178C43.0122 38.735 43.4227 38.7229 44.228 38.6803V39.7684C42.6069 39.9933 41.951 39.4888 41.951 38.0238V35.337H41.0498V34.1699H41.951V32.9602L43.0122 32.6016V34.1699H44.228V35.337V35.3309Z" fill="#0B4937"/>
<path d="M46.8412 36.6285C47.5574 36.802 48.4855 37.1324 48.4654 38.2353C48.4654 38.7278 48.2888 39.1197 47.9458 39.3996C47.6028 39.6796 47.174 39.8195 46.6545 39.8195C45.7364 39.8195 45.0554 39.366 44.7578 38.6159L45.6204 38.0617C45.7768 38.5543 46.1198 38.8062 46.6495 38.8062C47.1791 38.8062 47.4414 38.6103 47.4414 38.2297C47.4414 37.8993 47.0529 37.7034 46.5586 37.569C45.8625 37.3731 44.9243 37.0652 44.9445 35.9791C44.9445 35.5033 45.1008 35.1226 45.4287 34.8371C45.7516 34.5459 46.1652 34.406 46.6444 34.406C47.4161 34.406 48.0366 34.8091 48.3645 35.4809L47.517 36.0071C47.3607 35.6153 47.0631 35.4193 46.6444 35.4193C46.2661 35.4193 45.9685 35.6041 45.9685 35.9679C45.9685 36.3094 46.3569 36.4829 46.8412 36.6397V36.6285Z" fill="#0B4937"/>
<path d="M54.8217 33.1499C53.9872 33.0725 53.5813 33.4355 53.5813 34.2327V34.3398H54.8217V35.4822H53.5813V39.8196H52.4438V35.4822H51.6436V34.3398H52.4438V34.2327C52.4438 32.7334 53.2669 31.9123 54.8217 32.0075V33.1499Z" fill="#0B4937"/>
<path d="M56.1254 39.0365C55.6131 38.5109 55.3516 37.8733 55.3516 37.1127C55.3516 36.3522 55.6131 35.7146 56.1254 35.189C56.6376 34.6633 57.2698 34.406 58 34.406C58.7303 34.406 59.3624 34.6633 59.8747 35.189C60.3869 35.7146 60.6485 36.3522 60.6485 37.1127C60.6485 37.8733 60.3869 38.5109 59.8747 39.0365C59.3624 39.5622 58.7412 39.8195 58 39.8195C57.2589 39.8195 56.6376 39.5622 56.1254 39.0365ZM58 38.7402C58.4414 38.7402 58.8121 38.5836 59.1118 38.2759C59.4115 37.9684 59.5641 37.577 59.5641 37.1127C59.5641 36.6486 59.4115 36.2571 59.1118 35.9495C58.8121 35.6419 58.4414 35.4853 58 35.4853C57.5586 35.4853 57.1881 35.6419 56.8884 35.9495C56.5886 36.2571 56.436 36.6486 56.436 37.1127C56.436 37.577 56.5886 37.9684 56.8884 38.2759C57.1881 38.5836 57.5586 38.7402 58 38.7402Z" fill="#0B4937"/>
<path d="M62.2699 35.3939C62.544 34.7353 63.0705 34.406 63.8272 34.406V35.6482C63.4159 35.6134 63.0486 35.7233 62.736 35.9659C62.4234 36.2028 62.2699 36.5957 62.2699 37.1388V39.8195H61.1787V34.4985H62.2699V35.3939Z" fill="#0B4937"/>
<path d="M71.7722 37.5871C71.7722 38.2241 71.5843 38.7579 71.2035 39.1826C70.8228 39.6072 70.3608 39.8195 69.8125 39.8195H67.0049V32H69.6044C70.1373 32 70.5943 32.2123 70.9598 32.6248C71.3356 33.0374 71.5183 33.553 71.5183 34.1657C71.5183 34.8451 71.2949 35.3729 70.8533 35.7611C71.4219 36.1191 71.7671 36.7681 71.7671 37.581L71.7722 37.5871ZM68.0812 33.2072V35.2637H69.6044C70.0815 35.2637 70.4471 34.8147 70.4471 34.2385C70.4471 33.6622 70.0815 33.2133 69.6044 33.2133H68.0812V33.2072ZM69.8125 38.6123C70.3101 38.6123 70.701 38.1331 70.701 37.5203C70.701 36.9077 70.3101 36.4285 69.8125 36.4285H68.0812V38.6184H69.8125V38.6123Z" fill="#0B4937"/>
<path d="M73.9874 37.5826C74.1492 38.3654 74.7799 38.7961 75.6339 38.7961C76.22 38.7961 76.661 38.578 76.9624 38.1586L77.8777 38.6954C77.3755 39.4449 76.6219 39.8195 75.6284 39.8195C74.7967 39.8195 74.1158 39.5622 73.6023 39.0589C73.0887 38.5444 72.832 37.8957 72.832 37.1127C72.832 36.3298 73.0888 35.7035 73.5911 35.189C74.0934 34.6633 74.7521 34.406 75.5447 34.406C76.2926 34.406 76.9122 34.6745 77.3978 35.2002C77.8834 35.7258 78.129 36.3746 78.129 37.1239C78.129 37.2358 78.1178 37.3924 78.0899 37.5881H73.9985L73.9874 37.5826ZM77.0015 36.6765C76.8452 35.8433 76.2591 35.407 75.5335 35.407C74.713 35.407 74.1381 35.8935 73.9818 36.6765H77.0071H77.0015Z" fill="#0B4937"/>
<path d="M80.2122 36.6285C80.9285 36.802 81.8566 37.1324 81.8364 38.2353C81.8364 38.7278 81.6599 39.1197 81.3169 39.3996C80.9739 39.6796 80.5451 39.8195 80.0256 39.8195C79.1075 39.8195 78.4265 39.366 78.1289 38.6159L78.9914 38.0617C79.1479 38.5543 79.4909 38.8062 80.0205 38.8062C80.5502 38.8062 80.8124 38.6103 80.8124 38.2297C80.8124 37.8993 80.424 37.7034 79.9297 37.569C79.2336 37.3731 78.2954 37.0652 78.3156 35.9791C78.3156 35.5033 78.4719 35.1226 78.7998 34.8371C79.1226 34.5459 79.5363 34.406 80.0155 34.406C80.7872 34.406 81.4077 34.8091 81.7356 35.4809L80.8881 36.0071C80.7318 35.6153 80.4342 35.4193 80.0155 35.4193C79.6371 35.4193 79.3396 35.6041 79.3396 35.9679C79.3396 36.3094 79.728 36.4829 80.2122 36.6397V36.6285Z" fill="#0B4937"/>
<path d="M85.5445 35.3309H84.3307V38.0178C84.3307 38.735 84.7406 38.7229 85.5445 38.6803V39.7684C83.926 39.9933 83.2712 39.4888 83.2712 38.0238V35.337H82.3662V34.1699H83.2712V32.9602L84.3307 32.6016V34.1699H85.5445V35.337V35.3309Z" fill="#0B4937"/>
</g>
<defs>
<clipPath id="clip0_330_4719">
<rect width="114.47" height="40" fill="white" transform="translate(0.765137)"/>
</clipPath>
</defs>
</svg>
