<svg width="20" height="19" viewBox="0 0 20 19" fill="none" xmlns="http://www.w3.org/2000/svg">
<g clip-path="url(#clip0_143_2714)">
<path d="M9.8718 1.68996C12.3793 1.68996 12.6762 1.70096 13.6623 1.74495C14.5788 1.78528 15.0737 1.93924 15.4036 2.06755C15.8398 2.23618 16.1551 2.44147 16.4814 2.76773C16.8113 3.09766 17.0129 3.40926 17.1815 3.84549C17.3098 4.17542 17.4638 4.67398 17.5041 5.58678C17.5481 6.57656 17.5591 6.8735 17.5591 9.37728C17.5591 11.8847 17.5481 12.1817 17.5041 13.1678C17.4638 14.0843 17.3098 14.5791 17.1815 14.9091C17.0129 15.3453 16.8076 15.6606 16.4814 15.9868C16.1514 16.3168 15.8398 16.5184 15.4036 16.687C15.0737 16.8153 14.5751 16.9693 13.6623 17.0096C12.6725 17.0536 12.3756 17.0646 9.8718 17.0646C7.36435 17.0646 7.06741 17.0536 6.08129 17.0096C5.16483 16.9693 4.66994 16.8153 4.34001 16.687C3.90377 16.5184 3.5885 16.3131 3.26224 15.9868C2.93231 15.6569 2.73069 15.3453 2.56206 14.9091C2.43376 14.5791 2.27979 14.0806 2.23947 13.1678C2.19548 12.178 2.18448 11.8811 2.18448 9.37728C2.18448 6.86983 2.19548 6.5729 2.23947 5.58678C2.27979 4.67031 2.43376 4.17542 2.56206 3.84549C2.73069 3.40926 2.93598 3.09399 3.26224 2.76773C3.59217 2.4378 3.90377 2.23618 4.34001 2.06755C4.66994 1.93924 5.16849 1.78528 6.08129 1.74495C7.06741 1.70096 7.36435 1.68996 9.8718 1.68996ZM9.8718 0C7.32402 0 7.00509 0.0109976 6.00431 0.054988C5.00719 0.0989784 4.32168 0.260276 3.72781 0.491226C3.10828 0.733173 2.58406 1.0521 2.0635 1.57632C1.53929 2.09687 1.22036 2.62109 0.978409 3.23696C0.747459 3.8345 0.586161 4.51635 0.542171 5.51346C0.49818 6.51791 0.487183 6.83684 0.487183 9.38461C0.487183 11.9324 0.49818 12.2513 0.542171 13.2521C0.586161 14.2492 0.747459 14.9347 0.978409 15.5286C1.22036 16.1481 1.53929 16.6724 2.0635 17.1929C2.58406 17.7135 3.10828 18.0361 3.72414 18.2743C4.32168 18.5053 5.00353 18.6666 6.00064 18.7106C7.00143 18.7546 7.32036 18.7656 9.86813 18.7656C12.4159 18.7656 12.7348 18.7546 13.7356 18.7106C14.7327 18.6666 15.4183 18.5053 16.0121 18.2743C16.628 18.0361 17.1522 17.7135 17.6728 17.1929C18.1933 16.6724 18.5159 16.1481 18.7542 15.5323C18.9851 14.9347 19.1464 14.2529 19.1904 13.2558C19.2344 12.255 19.2454 11.9361 19.2454 9.38828C19.2454 6.84051 19.2344 6.52157 19.1904 5.52079C19.1464 4.52368 18.9851 3.83816 18.7542 3.24429C18.5232 2.62109 18.2043 2.09687 17.6801 1.57632C17.1595 1.05577 16.6353 0.733173 16.0195 0.494892C15.4219 0.263942 14.7401 0.102644 13.743 0.0586538C12.7385 0.0109976 12.4196 0 9.8718 0Z" fill="#A1A1AA"/>
<path d="M9.87179 4.56403C7.21037 4.56403 5.05118 6.72322 5.05118 9.38464C5.05118 12.0461 7.21037 14.2053 9.87179 14.2053C12.5332 14.2053 14.6924 12.0461 14.6924 9.38464C14.6924 6.72322 12.5332 4.56403 9.87179 4.56403ZM9.87179 12.5116C8.14517 12.5116 6.74481 11.1113 6.74481 9.38464C6.74481 7.65802 8.14517 6.25766 9.87179 6.25766C11.5984 6.25766 12.9988 7.65802 12.9988 9.38464C12.9988 11.1113 11.5984 12.5116 9.87179 12.5116Z" fill="#A1A1AA"/>
<path d="M16.0085 4.37335C16.0085 4.99654 15.5026 5.49877 14.883 5.49877C14.2598 5.49877 13.7576 4.99288 13.7576 4.37335C13.7576 3.75015 14.2635 3.24792 14.883 3.24792C15.5026 3.24792 16.0085 3.75381 16.0085 4.37335Z" fill="#A1A1AA"/>
</g>
<defs>
<clipPath id="clip0_143_2714">
<rect width="18.7692" height="18.7692" fill="white" transform="translate(0.487183)"/>
</clipPath>
</defs>
</svg>
