<svg width="19" height="19" viewBox="0 0 19 19" fill="none" xmlns="http://www.w3.org/2000/svg">
<g clip-path="url(#clip0_143_2715)">
<path d="M18.813 5.63079C18.813 5.63079 18.6298 4.33674 18.0652 3.76853C17.3504 3.02069 16.5512 3.01702 16.1846 2.97303C13.5599 2.78241 9.61906 2.78241 9.61906 2.78241H9.61172C9.61172 2.78241 5.67092 2.78241 3.04616 2.97303C2.67957 3.01702 1.88041 3.02069 1.16557 3.76853C0.601026 4.33674 0.421399 5.63079 0.421399 5.63079C0.421399 5.63079 0.230774 7.15212 0.230774 8.66979V10.0921C0.230774 11.6098 0.417733 13.1311 0.417733 13.1311C0.417733 13.1311 0.601026 14.4252 1.1619 14.9934C1.87675 15.7412 2.81521 15.7156 3.23312 15.7962C4.73612 15.9392 9.61539 15.9832 9.61539 15.9832C9.61539 15.9832 13.5599 15.9759 16.1846 15.7889C16.5512 15.7449 17.3504 15.7412 18.0652 14.9934C18.6298 14.4252 18.813 13.1311 18.813 13.1311C18.813 13.1311 19 11.6135 19 10.0921V8.66979C19 7.15212 18.813 5.63079 18.813 5.63079ZM7.67615 11.8188V6.54359L12.746 9.19034L7.67615 11.8188Z" fill="#A1A1AA"/>
</g>
<defs>
<clipPath id="clip0_143_2715">
<rect width="18.7692" height="18.7692" fill="white" transform="translate(0.230774)"/>
</clipPath>
</defs>
</svg>
