<svg width="30" height="30" viewBox="0 0 30 30" fill="none" xmlns="http://www.w3.org/2000/svg">
<g clip-path="url(#clip0_143_2640)">
<path d="M27 11.9462C27.0004 12.3526 26.9783 12.7588 26.9338 13.1627C26.4 18.211 22.531 23.52 15 25.9655C7.48139 23.5324 3.60001 18.24 3.06622 13.1627C3.02158 12.7588 2.99948 12.3526 3.00001 11.9462C3.00001 7.9324 5.44966 4.44826 9.00001 4.44826C10.1563 4.44602 11.299 4.69744 12.3476 5.18481L18.2979 4.91998C19.1641 4.60594 20.0787 4.44628 21 4.44826C24.5504 4.44826 27 7.9324 27 11.9462Z" fill="#FF9E9E"/>
<path d="M27 11.9462C27.0004 12.3526 26.9783 12.7588 26.9338 13.1627C25.4524 16.9696 20.669 19.7586 15 19.7586C9.33104 19.7586 4.5476 16.9696 3.06622 13.1627C3.02158 12.7588 2.99948 12.3526 3.00001 11.9462C3.00001 7.9324 5.44966 4.44826 9.00001 4.44826C10.1563 4.44602 11.299 4.69744 12.3476 5.18481L18.2979 4.91998C19.1641 4.60594 20.0787 4.44628 21 4.44826C24.5504 4.44826 27 7.9324 27 11.9462Z" fill="#FFC6C6"/>
<path d="M24.2069 19.7835C22.4725 21.9915 20.2312 23.7487 17.6731 24.9062C17.4248 25.0262 17.1724 25.1421 16.9159 25.2455C16.3076 25.5103 15.6662 25.7503 15 25.9655C14.7186 25.8745 14.4414 25.7793 14.1724 25.68V21.4138C13.1374 20.2807 12.5492 18.8102 12.5172 17.2759C12.5399 15.8139 12.9146 14.3788 13.6096 13.0924C13.6565 12.9908 13.659 12.8743 13.6167 12.7707C13.5743 12.6672 13.4908 12.5858 13.3862 12.5462C12.1823 12.1299 10.9192 11.9105 9.64551 11.8966C7.66344 11.2345 7.52689 9.25242 7.55585 8.48276C7.56166 8.29954 7.68836 8.14242 7.8662 8.09793L10.2662 7.50207C10.6661 7.40062 11.014 7.15437 11.2428 6.81104L12.2152 5.35448C12.2557 5.2952 12.2999 5.23853 12.3476 5.18483C12.553 4.94619 12.8232 4.77227 13.1255 4.68414C14.2788 4.32089 15.4728 4.10266 16.68 4.03448C17.3255 4.06984 17.9202 4.39538 18.2979 4.92C19.1596 6.1032 19.6088 7.53665 19.5765 9C19.5765 10.0593 19.1214 10.6676 18.4965 10.9531V10.9614L18.6165 11.7931L18.7076 12.4303C18.7301 12.5943 18.8494 12.7284 19.0096 12.7697C19.705 13.0065 20.3278 13.4184 20.8179 13.9655C21.5834 14.7269 23.1269 17.2138 24.2069 19.7835Z" fill="#35495E"/>
<path d="M18.6166 11.7931C18.2892 11.9191 17.9411 11.9823 17.5903 11.9793C17.1383 11.9763 16.6907 11.8893 16.2703 11.7228C15.7996 11.5322 15.4906 11.0761 15.4883 10.5683V7.75864C15.4883 7.53011 15.6735 7.34485 15.9021 7.34485C16.1306 7.34485 16.3159 7.53011 16.3159 7.75864V10.5683C16.3157 10.7379 16.419 10.8904 16.5766 10.9531C17.1554 11.2024 17.8087 11.2157 18.3972 10.9904C18.4289 10.9764 18.4623 10.9666 18.4966 10.9614L18.6166 11.7931Z" fill="#2C3E50"/>
<path d="M21.6 20.7186C21.5253 20.9344 21.2914 21.0504 21.0745 20.9793C20.2964 20.6753 19.418 20.7793 18.7324 21.2566C17.9249 21.8919 17.4622 22.8693 17.4828 23.8966C17.4763 24.2426 17.5411 24.5863 17.6731 24.9062C17.4248 25.0262 17.1724 25.1421 16.9159 25.2455C16.7386 24.8182 16.6499 24.3592 16.6552 23.8966C16.6361 22.604 17.2262 21.3778 18.2483 20.5862C19.151 19.9542 20.3071 19.8072 21.3393 20.1931C21.555 20.2678 21.6711 20.5017 21.6 20.7186Z" fill="#2C3E50"/>
<path d="M9.2069 7.76691V9.00001C9.2069 9.22854 9.02164 9.4138 8.79311 9.4138H7.6138C7.56354 9.10616 7.54414 8.79427 7.55587 8.48277C7.56167 8.29954 7.68838 8.14243 7.86621 8.09794L9.2069 7.76691Z" fill="#3F5C6C"/>
</g>
<defs>
<clipPath id="clip0_143_2640">
<rect width="24" height="24" fill="white" transform="translate(3 3)"/>
</clipPath>
</defs>
</svg>
