<svg width="116" height="23" viewBox="0 0 116 23" fill="none" xmlns="http://www.w3.org/2000/svg">
<path d="M10.2407 4.6272C10.5795 3.58455 12.0546 3.58455 12.3934 4.6272L13.6038 8.35255C13.7553 8.81883 14.1898 9.13454 14.6801 9.13454H18.5972C19.6935 9.13454 20.1493 10.5374 19.2624 11.1818L16.0934 13.4842C15.6968 13.7724 15.5308 14.2832 15.6823 14.7495L16.8927 18.4748C17.2315 19.5175 16.0381 20.3845 15.1512 19.7401L11.9822 17.4377C11.5856 17.1495 11.0485 17.1495 10.6518 17.4377L7.48288 19.7401C6.59595 20.3845 5.40259 19.5175 5.74136 18.4748L6.9518 14.7495C7.10331 14.2832 6.93733 13.7724 6.54069 13.4842L3.37172 11.1818C2.48479 10.5374 2.94061 9.13454 4.03692 9.13454H7.95398C8.44426 9.13454 8.87879 8.81883 9.03029 8.35255L10.2407 4.6272Z" fill="#F59E0B"/>
<path d="M33.582 4.6272C33.9208 3.58455 35.3959 3.58455 35.7346 4.6272L36.9451 8.35255C37.0966 8.81883 37.5311 9.13454 38.0214 9.13454H41.9384C43.0348 9.13454 43.4906 10.5374 42.6036 11.1818L39.4347 13.4842C39.038 13.7724 38.8721 14.2832 39.0236 14.7495L40.234 18.4748C40.5728 19.5175 39.3794 20.3845 38.4925 19.7401L35.3235 17.4377C34.9269 17.1495 34.3898 17.1495 33.9931 17.4377L30.8242 19.7401C29.9372 20.3845 28.7439 19.5175 29.0826 18.4748L30.2931 14.7495C30.4446 14.2832 30.2786 13.7724 29.882 13.4842L26.713 11.1818C25.8261 10.5374 26.2819 9.13454 27.3782 9.13454H31.2953C31.7855 9.13454 32.2201 8.81883 32.3716 8.35255L33.582 4.6272Z" fill="#F59E0B"/>
<path d="M56.9233 4.6272C57.2621 3.58455 58.7371 3.58455 59.0759 4.6272L60.2864 8.35255C60.4379 8.81883 60.8724 9.13454 61.3627 9.13454H65.2797C66.376 9.13454 66.8319 10.5374 65.9449 11.1818L62.776 13.4842C62.3793 13.7724 62.2133 14.2832 62.3648 14.7495L63.5753 18.4748C63.9141 19.5175 62.7207 20.3845 61.8338 19.7401L58.6648 17.4377C58.2682 17.1495 57.731 17.1495 57.3344 17.4377L54.1654 19.7401C53.2785 20.3845 52.0851 19.5175 52.4239 18.4748L53.6344 14.7495C53.7859 14.2832 53.6199 13.7724 53.2232 13.4842L50.0543 11.1818C49.1673 10.5374 49.6232 9.13454 50.7195 9.13454H54.6365C55.1268 9.13454 55.5613 8.81883 55.7128 8.35255L56.9233 4.6272Z" fill="#F59E0B"/>
<path d="M80.2655 4.6272C80.6043 3.58455 82.0793 3.58455 82.4181 4.6272L83.6285 8.35255C83.7801 8.81883 84.2146 9.13454 84.7049 9.13454H88.6219C89.7182 9.13454 90.1741 10.5374 89.2871 11.1818L86.1182 13.4842C85.7215 13.7724 85.5555 14.2832 85.707 14.7495L86.9175 18.4748C87.2563 19.5175 86.0629 20.3845 85.176 19.7401L82.007 17.4377C81.6103 17.1495 81.0732 17.1495 80.6766 17.4377L77.5076 19.7401C76.6207 20.3845 75.4273 19.5175 75.7661 18.4748L76.9766 14.7495C77.1281 14.2832 76.9621 13.7724 76.5654 13.4842L73.3965 11.1818C72.5095 10.5374 72.9654 9.13454 74.0617 9.13454H77.9787C78.469 9.13454 78.9035 8.81883 79.055 8.35255L80.2655 4.6272Z" fill="#F59E0B"/>
<path d="M103.607 4.6272C103.946 3.58455 105.421 3.58455 105.759 4.6272L106.97 8.35255C107.121 8.81883 107.556 9.13454 108.046 9.13454H111.963C113.06 9.13454 113.515 10.5374 112.628 11.1818L109.459 13.4842C109.063 13.7724 108.897 14.2832 109.048 14.7495L110.259 18.4748C110.598 19.5175 109.404 20.3845 108.517 19.7401L105.348 17.4377C104.952 17.1495 104.415 17.1495 104.018 17.4377L100.849 19.7401C99.962 20.3845 98.7686 19.5175 99.1074 18.4748L100.318 14.7495C100.469 14.2832 100.303 13.7724 99.9067 13.4842L96.7377 11.1818C95.8508 10.5374 96.3066 9.13454 97.4029 9.13454H101.32C101.81 9.13454 102.245 8.81883 102.396 8.35255L103.607 4.6272Z" fill="#F59E0B"/>
</svg>
